# Blender v2.76 (sub 0) OBJ File: ''
# www.blender.org
mtllib Mountain.mtl
o Layer0_001
v 1.541044 0.000000 -0.184688
v -1.541044 0.000000 -0.184688
v -1.500659 0.092476 -0.184688
v 1.496056 0.092476 -0.184688
v -1.461376 0.120535 -0.184688
v -1.416482 0.120535 -0.184688
v 1.445550 0.148594 -0.184688
v -1.410870 0.171041 -0.184688
v 1.355760 0.159818 -0.184688
v 1.327701 0.227160 -0.184688
v -1.242515 0.440409 -0.184688
v 1.282807 0.311337 -0.184688
v 1.209853 0.389903 -0.184688
v 1.181794 0.474080 -0.184688
v -1.158338 0.507751 -0.184688
v 1.198629 0.541422 -0.184688
v -1.018042 0.558257 -0.184688
v 1.131288 0.569481 -0.184688
v -0.771122 0.951085 -0.184688
v 0.934874 0.721000 -0.184688
v 0.895591 0.810790 -0.184688
v 0.794578 0.923026 -0.184688
v 0.727236 0.951085 -0.184688
v -0.698168 1.068934 -0.184688
v 0.631835 0.979144 -0.184688
v 0.586940 1.018427 -0.184688
v 0.581328 1.052098 -0.184688
v 0.340020 1.315854 -0.184688
v -0.675721 1.080157 -0.184688
v -0.675721 1.113828 -0.184688
v -0.675721 1.169947 -0.184688
v -0.670109 1.226065 -0.184688
v -0.630826 1.276571 -0.184688
v -0.518589 1.456150 -0.184688
v 0.306349 1.360749 -0.184688
v 0.250231 1.439314 -0.184688
v 0.087488 1.512268 -0.184688
v -0.181880 1.613281 -0.184688
v 0.031369 1.545939 -0.184688
v 0.008922 1.590834 -0.184688
v 0.003310 1.613281 -0.184688
v -0.136985 1.646952 -0.184688
v -0.019137 1.618893 -0.184688
v -0.047196 1.630116 -0.184688
v -0.092091 1.646952 -0.184688
v -1.541044 -0.000000 0.184688
v 1.541044 -0.000000 0.184688
v 1.496056 0.092476 0.184688
v -1.500659 0.092476 0.184688
v 1.445550 0.148594 0.184688
v -1.416482 0.120535 0.184688
v -1.410870 0.171041 0.184688
v 1.355760 0.159818 0.184688
v 1.327701 0.227160 0.184688
v -1.242515 0.440409 0.184688
v 1.282807 0.311337 0.184688
v 1.209853 0.389903 0.184688
v 1.181794 0.474080 0.184688
v -1.158338 0.507751 0.184688
v 1.198629 0.541422 0.184688
v -1.018042 0.558257 0.184688
v 1.131288 0.569481 0.184688
v -0.771122 0.951085 0.184688
v 0.934874 0.721000 0.184688
v 0.895591 0.810790 0.184688
v 0.794578 0.923026 0.184688
v 0.727236 0.951085 0.184688
v 0.631835 0.979144 0.184688
v -0.698168 1.068934 0.184688
v 0.586940 1.018427 0.184688
v 0.581328 1.052098 0.184688
v 0.340020 1.315854 0.184688
v -0.675721 1.080157 0.184688
v -0.675721 1.113828 0.184688
v -0.675721 1.169947 0.184688
v -0.670109 1.226065 0.184688
v -0.630826 1.276571 0.184688
v -0.518589 1.456150 0.184688
v 0.306349 1.360749 0.184688
v 0.250231 1.439314 0.184688
v 0.087488 1.512268 0.184688
v -0.181880 1.613281 0.184688
v 0.031369 1.545939 0.184688
v 0.008922 1.590834 0.184688
v 0.003310 1.613281 0.184688
v -0.019137 1.618893 0.184688
v -0.136985 1.646952 0.184688
v -0.047196 1.630116 0.184688
v -0.092091 1.646952 0.184688
v -1.461376 0.120535 0.184688
v 0.340020 1.315854 -0.129688
vt 0.000000 0.000000
vn 0.000000 0.000000 -1.000000
vn 0.000000 -1.000000 -0.000000
vn 0.000000 0.000000 1.000000
vn 0.899200 0.437500 0.000000
vn 0.829400 0.558700 0.000000
vn 0.462800 0.886500 0.000000
vn 0.605300 0.796000 0.000000
vn 0.903700 0.428100 0.000000
vn 0.814400 0.580400 0.000000
vn 0.860200 0.509900 0.000000
vn 0.999300 0.038400 0.000000
vn 0.893600 0.448900 0.000000
vn 0.502000 0.864900 0.000000
vn 0.788100 0.615500 0.000000
vn 0.840500 0.541800 0.000000
vn 0.578100 0.816000 0.000000
vn 0.333900 0.942600 0.000000
vn 0.481600 0.876400 0.000000
vn 0.873400 0.486900 0.000000
vn 0.899200 0.437400 0.000000
vn 0.899100 0.437700 0.000000
vn 0.737800 0.675000 0.000000
vn 0.806900 0.590700 0.000000
vn 0.800000 0.600000 0.000000
vn 0.633400 0.773800 0.000000
vn 0.462600 0.886600 0.000000
vn 0.733700 0.679400 0.000000
vn 0.937900 0.346900 0.000000
vn 0.707100 0.707100 0.000000
vn 0.307700 0.951500 0.000000
vn 0.361300 0.932500 0.000000
vn 0.178400 0.984000 0.000000
vn -0.316200 0.948700 0.000000
vn -0.514200 0.857700 0.000000
vn -0.662700 0.748900 0.000000
vn -0.819700 0.572700 0.000000
vn -0.928500 0.371300 0.000000
vn -0.998800 0.049800 0.000000
vn -1.000000 0.000000 0.000000
vn -0.850600 0.525700 0.000000
vn -0.674300 0.738400 0.000000
vn -0.848500 0.529300 0.000000
vn -0.626900 0.779100 0.000000
vn -0.488300 0.872700 0.000000
vn -0.747000 0.664900 0.000000
vn -0.848400 0.529300 0.000000
vn -0.993900 0.110400 0.000000
vn -0.666900 0.745100 0.000000
vn -0.305200 0.952300 0.000000
vn -0.776900 0.629700 0.000000
vn -0.776800 0.629700 0.000000
vn -0.916400 0.400200 0.000000
usemtl Material.001
s 1
f 2/1/1 3/1/1 4/1/1
f 3/1/1 5/1/1 6/1/1
f 7/1/1 4/1/1 6/1/1
f 9/1/1 7/1/1 8/1/1
f 10/1/1 8/1/1 11/1/1
f 13/1/1 12/1/1 11/1/1
f 14/1/1 11/1/1 15/1/1
f 16/1/1 15/1/1 17/1/1
f 17/1/1 19/1/1 20/1/1
f 20/1/1 19/1/1 22/1/1
f 23/1/1 22/1/1 19/1/1
f 25/1/1 23/1/1 24/1/1
f 26/1/1 24/1/1 28/1/1
f 28/1/1 24/1/1 29/1/1
f 28/1/1 30/1/1 31/1/1
f 28/1/1 32/1/1 33/1/1
f 35/1/1 28/1/1 34/1/1
f 37/1/1 36/1/1 34/1/1
f 39/1/1 37/1/1 38/1/1
f 40/1/1 38/1/1 42/1/1
f 43/1/1 41/1/1 42/1/1
f 44/1/1 42/1/1 45/1/1
f 2/1/2 1/1/2 47/1/2
f 46/1/3 47/1/3 48/1/3
f 48/1/3 50/1/3 51/1/3
f 51/1/3 50/1/3 53/1/3
f 53/1/3 54/1/3 55/1/3
f 54/1/3 56/1/3 57/1/3
f 57/1/3 58/1/3 59/1/3
f 58/1/3 60/1/3 61/1/3
f 61/1/3 60/1/3 62/1/3
f 63/1/3 62/1/3 64/1/3
f 65/1/3 66/1/3 67/1/3
f 63/1/3 67/1/3 68/1/3
f 69/1/3 68/1/3 70/1/3
f 71/1/3 72/1/3 73/1/3
f 74/1/3 73/1/3 72/1/3
f 75/1/3 72/1/3 77/1/3
f 77/1/3 72/1/3 79/1/3
f 79/1/3 80/1/3 81/1/3
f 78/1/3 81/1/3 83/1/3
f 82/1/3 83/1/3 84/1/3
f 82/1/3 85/1/3 86/1/3
f 87/1/3 86/1/3 88/1/3
f 90/1/3 49/1/3 51/1/3
f 47/1/4 1/1/4 4/1/5
f 48/1/5 4/1/5 7/1/6
f 53/1/7 50/1/6 7/1/6
f 53/1/7 9/1/7 10/1/8
f 54/1/8 10/1/8 12/1/9
f 56/1/9 12/1/9 13/1/10
f 57/1/10 13/1/10 14/1/11
f 58/1/11 14/1/11 16/1/12
f 62/1/13 60/1/12 16/1/12
f 64/1/14 62/1/13 18/1/13
f 64/1/14 20/1/14 21/1/15
f 65/1/15 21/1/15 22/1/16
f 67/1/17 66/1/16 22/1/16
f 68/1/18 67/1/17 23/1/17
f 70/1/19 68/1/18 25/1/18
f 70/1/19 26/1/19 27/1/20
f 71/1/21 27/1/20 91/1/22
f 91/1/22 27/1/20 28/1/22
f 79/1/23 72/1/24 91/1/24
f 35/1/23 91/1/24 28/1/24
f 79/1/23 35/1/23 36/1/25
f 81/1/26 80/1/25 36/1/25
f 39/1/27 83/1/27 81/1/26
f 83/1/27 39/1/27 40/1/28
f 84/1/28 40/1/28 41/1/29
f 86/1/30 85/1/29 41/1/29
f 88/1/31 86/1/30 43/1/30
f 89/1/32 88/1/31 44/1/31
f 87/1/33 89/1/32 45/1/32
f 82/1/34 87/1/33 42/1/33
f 34/1/35 78/1/35 82/1/34
f 78/1/35 34/1/35 33/1/36
f 77/1/36 33/1/36 32/1/37
f 76/1/37 32/1/37 31/1/38
f 75/1/38 31/1/38 30/1/39
f 74/1/39 30/1/39 29/1/40
f 69/1/41 73/1/40 29/1/40
f 69/1/41 24/1/41 19/1/42
f 63/1/42 19/1/42 17/1/43
f 59/1/44 61/1/43 17/1/43
f 55/1/45 59/1/44 15/1/44
f 55/1/45 11/1/45 8/1/46
f 52/1/47 8/1/47 6/1/48
f 90/1/49 51/1/48 6/1/48
f 49/1/50 90/1/49 5/1/49
f 49/1/50 3/1/51 2/1/52
f 1/1/1 2/1/1 4/1/1
f 4/1/1 3/1/1 6/1/1
f 8/1/1 7/1/1 6/1/1
f 10/1/1 9/1/1 8/1/1
f 12/1/1 10/1/1 11/1/1
f 14/1/1 13/1/1 11/1/1
f 16/1/1 14/1/1 15/1/1
f 18/1/1 16/1/1 17/1/1
f 18/1/1 17/1/1 20/1/1
f 21/1/1 20/1/1 22/1/1
f 24/1/1 23/1/1 19/1/1
f 26/1/1 25/1/1 24/1/1
f 27/1/1 26/1/1 28/1/1
f 30/1/1 28/1/1 29/1/1
f 32/1/1 28/1/1 31/1/1
f 34/1/1 28/1/1 33/1/1
f 36/1/1 35/1/1 34/1/1
f 38/1/1 37/1/1 34/1/1
f 40/1/1 39/1/1 38/1/1
f 41/1/1 40/1/1 42/1/1
f 44/1/1 43/1/1 42/1/1
f 46/1/2 2/1/2 47/1/2
f 49/1/3 46/1/3 48/1/3
f 49/1/3 48/1/3 51/1/3
f 52/1/3 51/1/3 53/1/3
f 52/1/3 53/1/3 55/1/3
f 55/1/3 54/1/3 57/1/3
f 55/1/3 57/1/3 59/1/3
f 59/1/3 58/1/3 61/1/3
f 63/1/3 61/1/3 62/1/3
f 65/1/3 63/1/3 64/1/3
f 63/1/3 65/1/3 67/1/3
f 69/1/3 63/1/3 68/1/3
f 71/1/3 69/1/3 70/1/3
f 69/1/3 71/1/3 73/1/3
f 75/1/3 74/1/3 72/1/3
f 76/1/3 75/1/3 77/1/3
f 78/1/3 77/1/3 79/1/3
f 78/1/3 79/1/3 81/1/3
f 82/1/3 78/1/3 83/1/3
f 85/1/3 82/1/3 84/1/3
f 87/1/3 82/1/3 86/1/3
f 89/1/3 87/1/3 88/1/3
f 48/1/5 47/1/4 4/1/5
f 50/1/6 48/1/5 7/1/6
f 9/1/7 53/1/7 7/1/6
f 54/1/8 53/1/7 10/1/8
f 56/1/9 54/1/8 12/1/9
f 57/1/10 56/1/9 13/1/10
f 58/1/11 57/1/10 14/1/11
f 60/1/12 58/1/11 16/1/12
f 18/1/13 62/1/13 16/1/12
f 20/1/14 64/1/14 18/1/13
f 65/1/15 64/1/14 21/1/15
f 66/1/16 65/1/15 22/1/16
f 23/1/17 67/1/17 22/1/16
f 25/1/18 68/1/18 23/1/17
f 26/1/19 70/1/19 25/1/18
f 71/1/21 70/1/19 27/1/20
f 72/1/22 71/1/21 91/1/22
f 35/1/23 79/1/23 91/1/24
f 80/1/25 79/1/23 36/1/25
f 37/1/26 81/1/26 36/1/25
f 37/1/26 39/1/27 81/1/26
f 84/1/28 83/1/27 40/1/28
f 85/1/29 84/1/28 41/1/29
f 43/1/30 86/1/30 41/1/29
f 44/1/31 88/1/31 43/1/30
f 45/1/32 89/1/32 44/1/31
f 42/1/33 87/1/33 45/1/32
f 38/1/34 82/1/34 42/1/33
f 38/1/34 34/1/35 82/1/34
f 77/1/36 78/1/35 33/1/36
f 76/1/37 77/1/36 32/1/37
f 75/1/38 76/1/37 31/1/38
f 74/1/39 75/1/38 30/1/39
f 73/1/40 74/1/39 29/1/40
f 24/1/41 69/1/41 29/1/40
f 63/1/42 69/1/41 19/1/42
f 61/1/43 63/1/42 17/1/43
f 15/1/44 59/1/44 17/1/43
f 11/1/45 55/1/45 15/1/44
f 52/1/46 55/1/45 8/1/46
f 51/1/48 52/1/47 6/1/48
f 5/1/49 90/1/49 6/1/48
f 3/1/51 49/1/50 5/1/49
f 46/1/52 49/1/50 2/1/52
